<svg xmlns="http://www.w3.org/2000/svg" viewBox="0 0 64 64" fill="none">
  <rect width="64" height="64" rx="12" fill="#050505"/>
  <path fill="#C5A059" d="M28 8c-1 0-1.9.6-2.3 1.5L11 38.5c-.4.8-.2 1.7.5 2.3l5.5 5.5c.6.6 1.5.7 2.3.4L51 32.5c1-.4 1.6-1.4 1.6-2.5V14c0-3.3-2.7-6-6-6H28z"/>
  <circle cx="30" cy="20" r="2.2" fill="#050505"/>
  <circle cx="30" cy="28" r="2.2" fill="#050505"/>
  <path fill="#C5A059" d="M18 44c-.7 0-1.4.3-1.9.8L8.5 52.4c-1.7 1.7-1.6 4.5.3 6 6.2 5.1 16.2 10.4 25.6 10.4 3 0 5.1-1.1 6.1-3 .9-1.6.6-3.4-.6-4.6L18 44z"/>
</svg>
